<?xml version="1.0" encoding="utf-8"?>
<!-- Generator: Adobe Illustrator 24.0.2, SVG Export Plug-In . SVG Version: 6.00 Build 0)  -->
<svg version="1.1" id="Layer_1" xmlns="http://www.w3.org/2000/svg" xmlns:xlink="http://www.w3.org/1999/xlink" x="0px" y="0px"
	 viewBox="0 0 37.6 37.6" style="enable-background:new 0 0 37.6 37.6;" xml:space="preserve">
<style type="text/css">
	.st0{fill:none;}
</style>
<path class="st0" d="M42.8,42.8h-48v-48h48V42.8z"/>
<polygon points="24,26 26.9,28.8 36.9,18.8 26.9,8.8 24,11.6 29.2,16.8 9.9,16.8 9.9,20.8 29.2,20.8 "/>
<path d="M32.8,29v3.8h-28v-28h28v3.8l4,4V4.8c0-2.2-1.8-4-4-4h-28c-2.2,0-4,1.8-4,4v28c0,2.2,1.8,4,4,4h28c2.2,0,4-1.8,4-4V25
	L32.8,29z"/>
</svg>
